<?xml version="1.0" encoding="utf-8"?>
<!-- Generator: Adobe Illustrator 18.1.1, SVG Export Plug-In . SVG Version: 6.00 Build 0)  -->
<svg version="1.1" xmlns="http://www.w3.org/2000/svg" xmlns:xlink="http://www.w3.org/1999/xlink" x="0px" y="0px"
	 viewBox="0 0 32 32" enable-background="new 0 0 32 32" xml:space="preserve">
<g id="Guides">
</g>
<g id="_x32_0">
</g>
<g id="_x31_9">
	<path d="M4,29c0,0.5527344,0.4472656,1,1,1h5c0.5527344,0,1-0.4472656,1-1v-1H4V29z"/>
	<path d="M21,29c0,0.5527344,0.4472656,1,1,1h5c0.5527344,0,1-0.4472656,1-1v-1h-7V29z"/>
	<path d="M29,8h-5V3c0-0.5527344-0.4472656-1-1-1H9C8.4472656,2,8,2.4472656,8,3v5H3C2.4472656,8,2,8.4472656,2,9v17
		c0,0.5527344,0.4472656,1,1,1h26c0.5527344,0,1-0.4472656,1-1V9C30,8.4472656,29.5527344,8,29,8z M26.5,10h1
		c0.2763672,0,0.5,0.2236328,0.5,0.5S27.7763672,11,27.5,11h-1c-0.2763672,0-0.5-0.2236328-0.5-0.5S26.2236328,10,26.5,10z M23.5,10
		h1c0.2763672,0,0.5,0.2236328,0.5,0.5S24.7763672,11,24.5,11h-1c-0.2763672,0-0.5-0.2236328-0.5-0.5S23.2236328,10,23.5,10z M10,4
		h12v4H10V4z M20.5,11c-0.2763672,0-0.5-0.2236328-0.5-0.5s0.2236328-0.5,0.5-0.5h1c0.2763672,0,0.5,0.2236328,0.5,0.5
		S21.7763672,11,21.5,11H20.5z M21,16c0,0.5522461-0.4476929,1-1,1s-1-0.4477539-1-1c0-0.5523071,0.4476929-1,1-1
		S21,15.4476929,21,16z M6.5,25h-1C5.2236328,25,5,24.7763672,5,24.5S5.2236328,24,5.5,24h1C6.7763672,24,7,24.2236328,7,24.5
		S6.7763672,25,6.5,25z M9.5,25h-1C8.2236328,25,8,24.7763672,8,24.5S8.2236328,24,8.5,24h1c0.2763672,0,0.5,0.2236328,0.5,0.5
		S9.7763672,25,9.5,25z M12.5,25h-1c-0.2763672,0-0.5-0.2236328-0.5-0.5s0.2236328-0.5,0.5-0.5h1c0.2763672,0,0.5,0.2236328,0.5,0.5
		S12.7763672,25,12.5,25z M15.5,25h-1c-0.2763672,0-0.5-0.2236328-0.5-0.5s0.2236328-0.5,0.5-0.5h1
		c0.2763672,0,0.5,0.2236328,0.5,0.5S15.7763672,25,15.5,25z M18,21c0,0.5527344-0.4472656,1-1,1H5c-0.5527344,0-1-0.4472656-1-1
		v-3.3061523c0.4761353-0.3015137,0.901062-0.8190308,1.2412109-1.534668l0.421875-0.8896484
		C6.0458984,14.4628906,6.5332031,14,7,14s0.9541016,0.4628906,1.3369141,1.2685547l0.421875,0.8916016
		C9.3232422,17.3466797,10.1181641,18,11,18s1.6767578-0.6533203,2.2412109-1.8408203l0.421875-0.8896484
		C14.0458984,14.4628906,14.5332031,14,15,14s0.9541016,0.4628906,1.3369141,1.2685547l0.421875,0.8916016
		C17.098938,16.8751831,17.5238647,17.3924561,18,17.6939087V21z M18,16.3081055
		c-0.118103-0.1668701-0.2319336-0.3557129-0.3369141-0.5766602l-0.421875-0.8916016C16.6767578,13.6533203,15.8818359,13,15,13
		s-1.6767578,0.6533203-2.2412109,1.8408203l-0.421875,0.8896484C11.9541016,16.5371094,11.4667969,17,11,17
		s-0.9541016-0.4628906-1.3369141-1.2685547l-0.421875-0.8916016C8.6767578,13.6533203,7.8818359,13,7,13
		s-1.6767578,0.6533203-2.2412109,1.8408203l-0.421875,0.8896484C4.2319336,15.9516602,4.118103,16.140625,4,16.3076782V11
		c0-0.5527344,0.4472656-1,1-1h12c0.5527344,0,1,0.4472656,1,1V16.3081055z M21,25c-1.1045532,0-2-0.8954468-2-2
		c0-0.3703003,0.1075439-0.7126465,0.2828979-1.0100708l2.7271729,2.7271729C21.7126465,24.8924561,21.3702393,25,21,25z
		 M22.7171021,24.0100708l-2.7271729-2.7271729C20.2873535,21.1075439,20.6297607,21,21,21c1.1045532,0,2,0.8953857,2,2
		C23,23.3702393,22.8924561,23.7126465,22.7171021,24.0100708z M24,17c-0.5523071,0-1-0.4477539-1-1c0-0.5523071,0.4476929-1,1-1
		s1,0.4476929,1,1C25,16.5522461,24.5523071,17,24,17z M25,23c0-1.1046143,0.8954468-2,2-2
		c0.3702393,0,0.7126465,0.1075439,1.0100708,0.2828979l-2.7271729,2.7271729C25.1075439,23.7126465,25,23.3702393,25,23z M27,25
		c-0.3702393,0-0.7126465-0.1075439-1.0100708-0.2828979l2.7271729-2.7271729C28.8924561,22.2873535,29,22.6296997,29,23
		C29,24.1045532,28.1045532,25,27,25z M28,17c-0.5523071,0-1-0.4477539-1-1c0-0.5523071,0.4476929-1,1-1s1,0.4476929,1,1
		C29,16.5522461,28.5523071,17,28,17z"/>
</g>
<g id="_x31_8">
</g>
<g id="_x31_7">
</g>
<g id="_x31_6">
</g>
<g id="_x31_5">
</g>
<g id="_x31_4">
</g>
<g id="_x31_3">
</g>
<g id="_x31_2">
</g>
<g id="_x31_1">
</g>
<g id="_x31_0">
</g>
<g id="_x30_9">
</g>
<g id="_x30_8">
</g>
<g id="_x30_7">
</g>
<g id="_x30_6">
</g>
<g id="_x30_5">
</g>
<g id="_x30_4">
</g>
<g id="_x30_3">
</g>
<g id="_x30_2">
</g>
<g id="_x30_1">
</g>
</svg>
